<svg class="svg-icon" style="width: 1.4140625em; height: 1em;vertical-align: middle;fill: currentColor;overflow: hidden;" viewBox="0 0 1448 1024" version="1.1" xmlns="http://www.w3.org/2000/svg"><path d="M312.724366 549.098328c0 16.799243-5.815123 31.337049-17.553055 43.721106-14.430119 15.291618-34.890735 22.937428-61.381848 22.937428-10.230308 0-19.599117-1.184562-28.214113-3.553686s-17.33768-4.738248-26.275739-7.322747c-3.015249 0-5.06131 0.969187-6.35356 3.015249s-2.369124 4.630561-3.230624 7.753496H160.454306v-78.611841h9.261121c3.769061 19.060679 10.445683 34.459985 19.706805 46.197918 11.630245 14.645494 26.814176 21.968241 45.551793 21.96824 12.70712 0 22.506678-3.338311 29.398675-10.014933 6.891997-6.676622 10.337996-15.291618 10.337995-25.629614 0-9.584183-3.338311-17.445368-9.907246-23.583552-4.415186-3.984436-13.030182-9.153434-25.844989-15.291619l-21.322115-10.230308c-23.583552-11.307183-39.413608-24.014302-47.38248-38.229046-4.630561-8.291934-6.999685-18.306867-6.999685-29.937112 0-20.137554 7.107372-36.075297 21.322116-47.81323 12.27637-10.014933 28.644863-14.968556 48.997792-14.968556 10.014933 0 20.460616 1.722999 31.337049 5.276685 10.876433 3.553686 17.014618 5.276685 18.306867 5.276686 3.769061 0 6.568935-1.615312 8.291934-4.738248 0.8615-1.507624 1.615312-3.445999 2.261436-5.707435h9.584184v69.027658h-8.938059c-3.769061-14.537806-10.230308-27.137238-19.060679-37.798297-12.060995-14.322431-26.491114-21.429803-43.290357-21.429803-9.153434 0-17.122305 2.584499-23.906614 7.861184-6.78431 5.168998-10.230308 12.70712-10.230309 22.506678 0 8.507309 2.153749 15.291618 6.568935 20.245241 4.307498 4.953623 13.137869 10.768745 26.275739 17.33768l46.844042 23.26049c8.076559 4.092123 15.183931 10.122621 21.322116 18.19918 9.153434 11.737932 13.783994 25.198864 13.783994 40.275108zM529.499211 419.981071c-21.214428-20.137554-47.597855-30.260175-79.257966-30.260175-31.875486 0-58.581975 10.337996-80.227153 31.013987-21.645178 20.675991-32.521611 48.028604-32.521611 81.950152 0 33.490798 10.55337 60.735724 31.660111 81.62709 21.106741 20.891366 48.136292 31.337049 80.980966 31.337049 32.629299 0 59.65885-10.55337 80.873278-31.552424 21.214428-20.999054 31.875486-48.136292 31.875486-81.519402 0-33.706173-11.091808-61.381849-33.383111-82.596277zM498.592912 564.497634c-8.938059 27.137238-25.091177 40.705858-48.351667 40.705857-18.414555 0-32.413924-8.399621-41.998107-25.091176-9.584183-16.799243-14.322431-42.536544-14.322431-77.319592 0-28.214113 3.769061-51.151541 11.41487-68.704596 9.799558-22.506678 24.768114-33.706173 44.905668-33.706173 20.352929 0 35.321485 11.307183 44.905668 33.706173 7.645809 17.76843 11.41487 40.705858 11.414871 68.704596 0 24.983489-2.692186 45.65948-7.968872 61.704911zM31.875486 394.566831h111.456515v7.968872c-9.584183 0-16.47618 1.076875-20.675991 3.230624-6.35356 3.122936-9.584183 9.691871-9.584183 19.383741v154.100747c0 9.153434 2.907561 15.399306 8.614996 18.737617 4.415186 2.584499 11.630245 3.769061 21.645178 3.769061v7.968871H31.875486v-7.968871c13.353244-1.292249 21.645178-3.553686 24.875802-6.676622 3.230624-3.230624 4.738248-8.507309 4.738248-15.937743v-153.99306c0-9.368808-3.015249-15.722368-9.261121-19.060679-4.199811-2.369124-11.091808-3.553686-20.352929-3.553686v-7.968872zM664.108529 440.980124v136.116942c0 11.953307 0.753812 22.506678 2.261436 31.660111H639.663477c1.507624-8.830371 2.261437-19.383742 2.261436-31.660111V414.91976h-15.076243c-8.076559 0-16.153118 0.538437-24.337365 1.722999v-22.075928c6.138185 0.969187 13.891682 1.399937 23.26049 1.399937h17.660743c7.861184 0 15.614681-0.43075 23.26049-1.399937-1.830687 16.90693-2.584499 32.413924-2.584499 46.413293zM398.658955 263.08045c36.936797 20.137554 76.458092 34.890735 116.948575 45.444106-3.553686 13.676307-6.676622 27.567988-9.476496 41.459669h35.967609c2.369124-11.091808 4.953623-22.183616 7.861185-33.167735 49.859291 10.876433 100.903144 16.260806 151.83931 17.229992V349.984225h35.213797v-16.04543c51.043853-0.969187 102.087706-6.245872 151.83931-17.229993 2.907561 10.98412 5.599748 22.075928 7.861184 33.275423h35.96761c-2.799874-13.891682-5.92281-27.675676-9.476496-41.351982 40.382795-10.768745 80.011778-25.414239 116.7332-45.551793 20.675991 26.706489 37.798296 55.997476 51.151541 86.903775h38.229046c-5.168998-13.353244-11.091808-26.383426-17.660742-39.198233C1063.952045 216.451783 980.925018 140.532127 882.498685 101.549269c-47.167105-19.060679-97.780208-28.967925-148.500999-31.337049h-29.290987c-56.858976 2.584499-113.394889 14.860869-165.300242 38.444421-78.396467 34.998423-145.9165 93.580398-191.791356 165.946367-15.183931 23.798927-27.998738 48.997792-38.229046 75.27353h38.121359c13.460932-30.798612 30.583237-60.089599 51.151541-86.796088z m618.233673-27.460301c-32.844673 17.014618-67.735409 29.937112-103.487643 39.198234-14.860869-45.444106-34.998423-89.595962-63.85866-128.040383-7.753497-9.153434-14.753181-18.845304-23.583553-26.921864 72.904406 19.491429 139.778315 60.412662 190.929856 115.764013zM737.012935 107.149017c25.629614 5.49206 47.920917 20.783679 65.797035 39.521295 36.613734 37.905984 58.905037 86.903775 76.242717 136.009255-11.737932 2.907561-23.583552 5.168998-35.53686 6.676622-35.213797 5.707435-70.858345 8.722684-106.502892 9.261121 0.107687-63.750973 0-127.609633 0-191.468293z m-35.10611 0v191.57598c-26.383426-0.215375-52.659165-2.692186-78.827216-5.384372-21.214428-3.230624-42.536544-5.384373-63.212536-10.661058 14.753181-41.998107 33.060048-83.457777 60.843412-118.563887 20.568304-26.168051 47.490167-49.966979 81.19634-56.966663zM585.927437 128.14807c8.830371-3.015249 17.660742-6.245872 26.921864-7.968871-42.213482 42.644232-68.489221 98.318645-87.119151 154.639184-35.752235-9.153434-70.858345-21.968241-103.487643-39.198234 44.690293-48.567042 101.441582-85.826901 163.68493-107.472079zM830.916395 550.175202c0-28.537175-19.060679-42.859607-57.182038-42.859606-6.568935 0-13.999369 0.43075-22.398991 1.399937v-22.183616c6.568935 1.076875 13.460932 1.722999 20.783679 1.722999 18.62993 0 32.306236-4.307498 40.921233-12.922494 7.430434-7.107372 11.199495-16.153118 11.199495-27.137238 0-11.953307-3.984436-21.322116-12.060995-27.998739-7.861184-6.676622-18.845304-10.122621-33.060048-10.12262-17.229993 0-29.61405 4.953623-37.259859 14.860868-3.338311 4.307498-6.35356 10.876433-8.938059 19.922179l-23.26049-5.06131c4.092123-12.491745 9.153434-21.860553 15.076243-27.998738 12.491745-13.676307 31.121674-20.460616 55.782102-20.460616 20.352929 0 36.506047 4.953623 48.459354 14.860868 11.953307 9.907246 17.876117 23.26049 17.876117 40.059733 0 18.091492-6.568935 31.767799-19.599116 40.921233-6.138185 4.522873-14.968556 7.861184-26.275739 10.122621 14.430119 1.507624 25.844989 5.49206 34.459985 12.060994 12.491745 9.691871 18.737617 23.798927 18.737617 42.32117 0 18.845304-6.78431 33.813861-20.460616 44.797981-13.676307 10.98412-32.090861 16.583868-55.459039 16.583868-28.214113 0-49.105479-7.645809-62.781786-22.937428-5.276685-5.92281-10.014933-15.076244-14.322431-27.137239l23.475865-5.92281c3.769061 12.27637 9.476496 21.214428 17.122305 26.598802 9.476496 6.676622 21.537491 10.122621 36.075297 10.12262 16.260806 0 29.075613-3.876748 38.659796-11.737932 9.584183-8.076559 14.430119-18.62993 14.430119-31.875487zM1040.153118 758.011989c-36.829109-20.245241-76.350405-34.890735-116.840887-45.551793 3.553686-13.783994 6.676622-27.675676 9.476495-41.567358h-35.967609c-2.369124 11.199495-4.953623 22.291303-7.861184 33.383111-49.859291-10.876433-101.010832-16.153118-151.946998-17.122305V670.892838h-35.213797v16.260806c-50.936166 0.969187-101.980019 6.138185-151.731623 17.229993-2.907561-11.091808-5.599748-22.291303-7.968872-33.490799H506.131034c2.799874 13.999369 5.92281 27.891051 9.476496 41.675045-40.490483 10.768745-80.119466 25.414239-116.948575 45.551793-20.675991-26.814176-37.905984-56.212851-51.259228-87.226838h-38.013672c18.522242 47.167105 45.228731 91.211274 78.719529 129.332633 55.889789 64.074035 130.840257 111.456515 212.682722 134.178567 33.813861 9.584183 68.919971 14.322431 103.918393 16.260806h29.290987c26.814176-1.507624 53.628352-4.307498 79.796404-10.230308 64.504785-13.999369 125.671259-42.967294 177.576611-83.888527 50.613103-39.844358 92.503523-90.995899 121.471449-148.716374 6.138185-12.060995 11.630245-24.337365 16.47618-36.829109h-38.121359c-13.137869 30.906299-30.367862 60.304974-51.043853 87.011463zM422.13482 785.472289c32.844673-16.90693 67.735409-30.152487 103.59533-39.090545 18.62993 56.428226 45.013356 111.994952 87.226838 154.746871-72.904406-19.276054-139.778315-60.304974-190.822168-115.656326z m279.772005 128.471133c-25.629614-5.384373-47.920917-20.783679-65.797034-39.413608-36.506047-38.013671-59.012725-87.011463-76.13503-136.332317 46.628668-10.122621 94.226522-14.968556 141.932064-15.722368v191.468293z m35.10611 0V722.367441c25.844989 0.215375 51.474603 2.584499 77.104217 4.953623 21.645178 3.230624 43.505731 5.707435 64.935535 10.876433-14.753181 42.105795-33.060048 83.780839-60.951099 118.779262-20.675991 26.275739-47.597855 49.859291-81.088653 56.966663z m88.84215-12.70712c42.321169-42.751919 68.596908-98.426333 87.334525-154.962246 35.752235 9.261121 70.858345 21.968241 103.487643 39.198233-51.043853 55.459039-118.02545 96.272584-190.822168 115.764013zM1406.936586 538.652645c0 22.614365-6.78431 40.490483-20.460616 53.736039-13.676307 13.460932-31.983174 20.137554-55.135976 20.137554-22.075928 0-39.844358-6.35356-53.520665-19.060679-6.030497-5.92281-11.84562-14.753181-17.660742-26.383426l22.937427-6.676622c2.476811 6.891997 5.384373 12.384057 8.938059 16.260805 9.907246 10.98412 23.152803 16.47618 39.736671 16.476181 15.722368 0 28.3218-4.845935 38.121358-14.537807 9.476496-9.907246 14.322431-22.82974 14.322432-38.875171 0-15.506993-4.522873-27.783363-13.460932-36.936796-8.938059-9.368808-20.783679-13.999369-35.53686-13.999369-14.322431 0-26.598801 3.876748-36.721422 11.737932-5.92281 4.630561-10.230308 10.230308-12.922494 16.799243l-20.999054-1.938374c1.830687-8.938059 3.230624-18.62993 4.199811-28.860238l6.138185-63.320223c0.538437-8.184247 0.8615-13.783994 0.861499-16.799243 0-3.338311-0.215375-7.430434-0.538437-12.060994 7.322747 0.969187 17.122305 1.399937 29.721737 1.399936h57.720476c11.953307 0 22.82974-0.753812 32.736986-2.261436v23.798927c-9.476496-1.507624-20.460616-2.261437-32.736986-2.261436h-65.797035l-5.92281 61.920286c-0.323062 3.338311-1.076875 7.538122-2.261436 12.599432 13.460932-12.922494 29.829425-19.276054 48.997791-19.276054 20.568304 0 37.367547 6.35356 50.397729 19.060679 12.599432 12.060995 18.845304 28.429488 18.845304 49.320854zM1021.092439 554.375013c9.907246 0 19.706804 0.646125 29.398675 1.938374V533.052897c-9.368808 1.292249-19.060679 1.938374-29.075613 1.938374h-10.661058v-91.857398c0-18.306867 0.538437-34.029235 1.722999-47.274792h-20.999053c-6.138185 9.368808-13.137869 18.845304-20.999054 28.537175l-70.858344 88.519087-18.19918 21.537491v20.999054c8.184247-0.753812 19.276054-1.076875 33.383111-1.076875H989.647702v24.12199c0 11.41487-0.753812 21.429803-2.261436 30.260174h25.521926c-1.507624-9.153434-2.261437-19.276054-2.261436-30.260174v-24.12199h10.445683z m-31.121674-90.134399v71.181407h-83.78084l64.397098-81.19634c8.722684-11.199495 15.722368-20.568304 20.999053-27.998738-1.076875 11.307183-1.615312 23.906615-1.615311 38.013671zM1206.960984 509.25397c-8.614996-6.568935-18.19918-10.55337-28.860237-12.060995 12.491745-2.476811 22.39899-8.184247 29.721737-17.33768 7.322747-8.938059 10.876433-19.922179 10.876433-33.060048 0-17.122305-6.138185-30.690924-18.522242-40.598171-12.27637-9.907246-29.1833-14.860869-50.720791-14.860868-21.106741 0-37.905984 5.06131-50.397729 15.076243-12.384057 9.907246-18.522242 23.368178-18.522242 40.275108 0 13.030182 3.769061 24.229677 11.199496 33.383111 7.322747 9.153434 17.122305 14.860869 29.398674 17.122305-9.368808 1.507624-17.76843 4.630561-25.198864 9.584183-16.583868 10.768745-24.983489 26.275739-24.983489 46.520981 0 19.276054 6.78431 34.029235 20.460616 44.474918 13.783994 10.230308 33.490798 15.399306 59.120412 15.399306 24.660427 0 43.721106-5.276685 57.182039-15.722368 13.460932-10.230308 20.137554-24.983489 20.137553-44.259544 0.107687-18.952992-6.891997-33.598486-20.891366-43.936481z m-91.857398-31.337049c-8.399621-7.107372-12.599432-16.90693-12.599432-29.398675 0-11.630245 4.307498-20.891366 12.922494-27.998738 8.614996-6.891997 20.029866-10.337996 34.136923-10.337996 14.322431 0 25.844989 3.445999 34.459986 10.337996 8.614996 6.891997 12.922494 16.260806 12.922494 27.998738 0 12.491745-4.199811 22.291303-12.599432 29.398675-8.184247 7.107372-19.706804 10.661058-34.459985 10.661058s-26.383426-3.553686-34.783048-10.661058z m79.257966 101.656956c-9.691871 9.691871-24.768114 14.537806-45.121043 14.537807-17.33768 0-30.906299-3.769061-40.59817-11.199496-9.691871-7.430434-14.537806-17.876117-14.537806-31.121674 0-13.676307 4.953623-24.337365 14.860868-32.198548 9.907246-7.861184 23.475865-11.737932 40.59817-11.737933 17.229993 0 30.690924 3.876748 40.598171 11.737933 9.907246 7.861184 14.860869 18.62993 14.860868 32.198548 0 12.060995-3.553686 21.214428-10.661058 27.783363z" fill="#737373" /></svg>