<svg xmlns="http://www.w3.org/2000/svg" viewBox="0 0 279.3 222.5">
  <defs>
    <style>
      .cls-1 {
        fill: #e2f5e9;
      }

      .cls-2 {
        fill: #00ae40;
      }

      .cls-3 {
        fill: #005cb8;
      }

      .cls-4 {
        fill: #e74a36;
      }

      .cls-5 {
        fill: #1db755;
      }
    </style>
  </defs>
  <title>Saudi Food and Drug Authority (SFDA) logo</title>
  <g id="Layer_2" data-name="Layer 2">
    <g id="Layer_1-2" data-name="Layer 1">
      <g>
        <path class="cls-1" d="M129.36,222.5v-1q3.64-3.37,7.31,0v1Z"/>
        <path class="cls-2" d="M136.65,221.5h-7.31c-3.75-.71-7.6-1.1-11.24-2.2-15.48-4.67-22.9-17.24-19.69-33.1,2.88-14.29,10.91-25.83,20-36.78A224.55,224.55,0,0,1,152,117.23c2.15-1.71,3.63-3.43,3.88-6.38.94-10.87,5.8-20,13.08-27.93,16.34-17.68,37.61-26.45,60.17-32.77,1.11-.32,2.55-1,2.85.78.32,2-1.55,2-2.83,2.37-10.56,3.47-20.81,7.64-29.71,14.46-9.58,7.34-16.7,16.23-17.57,30,29.4-14.27,58.65-27.21,89-37.5,1.34-.57,1.55.11,1.36,1.23-28.59,14.39-56.51,29.92-82.59,48.56-15.09,10.79-29.69,22.18-41.78,36.42a71.22,71.22,0,0,0-9.21,13.41c-9.47,18.34.24,36.89,20.79,39.68,12.14,1.64,23.57-1.25,34.8-5.47,17.07-6.42,32.17-16.41,47.37-26.21a1.21,1.21,0,0,1,1.71.12l.1.14a3.58,3.58,0,0,1-1.5,2.47c-23.32,15.37-45.91,32-71.95,42.74A105.67,105.67,0,0,1,136.65,221.5Z"/>
        <path class="cls-3" d="M11.42,115.85c-1.48-2.3-.26-3.67,1-5,25.87-27.35,53.1-53,87.69-69.29,10.83-5.09,22.21-8.4,34.48-6.94,19.09,2.28,28.69,16.16,24.54,35.92C155,90,143.45,105.18,130.91,119.79c-21.35,24.89-48,43.52-74.19,62.69-16.3,11.91-32.94,23.26-51.15,32.09C3.9,215.38,2.3,217.05,0,216c.8-2.45,3.16-3.06,4.91-4.26C35.69,190.64,65.51,168.3,92,141.83a193.84,193.84,0,0,0,22-25.7,89,89,0,0,0,9.42-16.83c10.08-24.29-5-39.79-29-38.29-11.31.7-21.48,5-31.14,10.65A154.09,154.09,0,0,0,32.35,95.73C25.42,102.57,18.42,109.11,11.42,115.85Z"/>
        <path class="cls-4" d="M180.3,41.21c-11.38-.16-20.77-9.8-20.4-21a20.81,20.81,0,0,1,41.61.83,20.63,20.63,0,0,1-21.08,20.17Z"/>
        <path class="cls-5" d="M272.14,61.47l-1.36-1.23a14.12,14.12,0,0,1,8.52-2.44C276.07,59.57,274.5,61.25,272.14,61.47Z"/>
        <g>
          <path class="cls-2" d="M169.28,160.29l1.72-.19a5.28,5.28,0,0,0,.63,2.26,3.62,3.62,0,0,0,1.39,1.3,4.47,4.47,0,0,0,2,.49,3.68,3.68,0,0,0,2.53-.83,2.82,2.82,0,0,0,.9-2.16,2.66,2.66,0,0,0-.33-1.36,2.47,2.47,0,0,0-1-1,17.83,17.83,0,0,0-2.85-1,10.45,10.45,0,0,1-2.78-1.22,4.09,4.09,0,0,1-1.28-1.55,4.74,4.74,0,0,1-.46-2.12,4.6,4.6,0,0,1,4.32-4.85,3.49,3.49,0,0,1,.56,0,5.36,5.36,0,0,1,2.69.63,4.36,4.36,0,0,1,1.79,1.82,6.11,6.11,0,0,1,.68,2.79l-1.75.17a3.84,3.84,0,0,0-1-2.54,3.25,3.25,0,0,0-2.38-.82,3.41,3.41,0,0,0-2.36.72,2.38,2.38,0,0,0-.82,1.87,2.22,2.22,0,0,0,.6,1.66,7.14,7.14,0,0,0,2.69,1.18,16.55,16.55,0,0,1,2.87,1,4.69,4.69,0,0,1,1.9,1.77,4.94,4.94,0,0,1,.65,2.61,5.62,5.62,0,0,1-.68,2.74,4.71,4.71,0,0,1-1.84,1.89,5.94,5.94,0,0,1-2.81.64,5.36,5.36,0,0,1-4.08-1.6A6.25,6.25,0,0,1,169.28,160.29Z"/>
          <path class="cls-2" d="M188.25,165.94V148.39h9.31v2.07h-7.49v5.44h6.48V158h-6.48v8Z"/>
          <path class="cls-2" d="M205.22,165.94V148.39H210a8.41,8.41,0,0,1,2.69.32,4.52,4.52,0,0,1,2.09,1.54,7.89,7.89,0,0,1,1.38,2.8,14.57,14.57,0,0,1,.49,4,13.46,13.46,0,0,1-.84,5.06,6.2,6.2,0,0,1-2.15,2.95,6.28,6.28,0,0,1-3.44.86Zm1.82-2.07H210a5.17,5.17,0,0,0,2.7-.6,3.88,3.88,0,0,0,1.41-2,12.42,12.42,0,0,0,.66-4.27,10.35,10.35,0,0,0-.7-4.2,3.87,3.87,0,0,0-1.78-2,5.61,5.61,0,0,0-2.33-.35H207Z"/>
          <path class="cls-2" d="M222,165.94l5.33-17.55h2L235,165.94h-2.09l-1.6-5.31h-5.84l-1.5,5.31Zm4-7.2h4.7l-1.43-4.87c-.45-1.49-.77-2.7-1-3.64a28,28,0,0,1-.75,3.36Z"/>
        </g>
      </g>
    </g>
  </g>
</svg>
